<svg width="" height="" viewBox="0 0 420 238" fill="none" xmlns="http://www.w3.org/2000/svg">
<path fill-rule="evenodd" clip-rule="evenodd" d="M256.003 234.693L257.17 222.32H251.39L251.732 234.427L256.003 234.693Z" fill="url(#paint0_linear_0_8)"/>
<path d="M336.948 236.626H340.144L328.95 143.787H320.634L336.948 236.626Z" fill="#B3B3B3"/>
<path opacity="0.32" d="M325.564 171.809L320.645 143.787H328.962L331.321 163.336C330.011 166.369 327.947 169.204 325.564 171.809Z" fill="#B3B3B3"/>
<path d="M227.81 236.626H224.613L235.808 143.787H244.124L227.81 236.626Z" fill="#B3B3B3"/>
<path opacity="0.32" d="M231.974 175.605L235.808 143.798H244.124L239.795 168.406C237.589 171.114 234.923 173.522 231.974 175.605Z" fill="#B3B3B3"/>
<path d="M237.164 32.74H340.711V111.32H237.164V32.74Z" fill="#FCCB92"/>
<path d="M252.321 148.36C232.103 128.521 232.103 96.3562 252.321 76.5174C272.54 56.6786 305.321 56.6786 325.539 76.5174C345.757 96.3562 345.757 128.521 325.539 148.36C305.321 168.199 272.54 168.199 252.321 148.36Z" fill="#FCCB92"/>
<path d="M288.926 163.186H255.283C268.353 162.596 280.138 157.26 288.926 148.891V163.186Z" fill="#FCCB92"/>
<path d="M252.877 163.244C252.075 163.244 251.273 163.221 250.471 163.186H255.283C254.493 163.221 253.691 163.244 252.877 163.244Z" fill="#FCCB92"/>
<path d="M288.926 87.4415V148.879C280.138 157.248 268.342 162.595 255.283 163.174H250.47C222.997 161.936 201.104 139.701 201.104 112.431C201.104 103.345 203.546 94.8146 207.816 87.43H288.926V87.4415Z" fill="#FCCB92"/>
<path d="M247.474 40.7497H330.389V111.32H247.474V40.7497Z" fill="#E39A46"/>
<path d="M235.029 149.701H280.421V94.7104H215.318C204.312 112.443 216.922 141.495 235.029 149.701Z" fill="#E39A46"/>
<path d="M247.474 73.7604C256.144 68.4245 266.926 65.2646 278.616 65.2646C307.21 65.2646 330.389 84.1659 330.389 107.489C330.389 130.812 307.21 149.713 278.616 149.713C266.926 149.713 256.144 146.553 247.474 141.217V73.7604Z" fill="#E39A46"/>
<path d="M305.204 112.385C305.204 103.322 302.774 94.8146 298.528 87.4532H333.598V127.328L329.245 142.178L316.175 144.875L301.04 146.472L288.926 148.891C299.294 142.363 305.204 125.499 305.204 112.385Z" fill="#FCCB92"/>
<path d="M315.502 236.626H318.699L307.505 143.787C303.128 143.787 299.766 147.606 300.403 151.854L315.502 236.626Z" fill="#C9C9C9"/>
<path d="M206.365 236.626H203.168L214.362 143.787C218.739 143.787 222.101 147.606 221.464 151.854L206.365 236.626Z" fill="#C9C9C9"/>
<path opacity="0.36" d="M217.913 171.797C215.577 174.054 212.982 176.022 210.257 177.828L214.362 143.787C218.739 143.787 222.101 147.606 221.464 151.854L217.913 171.797Z" fill="#C9C9C9"/>
<path opacity="0.36" d="M304.839 176.786L300.403 151.866C299.766 147.606 303.128 143.798 307.505 143.798L310.619 169.587C309.144 172.26 307.139 174.645 304.839 176.786Z" fill="#C9C9C9"/>
<path d="M259.011 229.589C259.011 229.589 272.116 174.645 272.116 151.495C272.116 128.346 257.253 129.052 253.006 138.404C248.76 147.757 251.555 229.439 251.555 229.439L259.011 229.589Z" fill="#4A4A4A"/>
<path d="M305.016 116.552C305.016 116.552 303.116 145.152 289.515 148.324C275.915 151.495 233.543 149.701 233.543 149.701L224.613 131.656L231.207 130.094L258.079 129.723L262.644 115.637L305.016 116.552Z" fill="#4A4A4A"/>
<path d="M298.528 87.4416H318.781C315.278 76.2142 301.311 42.6016 295.366 39.2218C289.421 35.8421 275.867 35.2981 270.948 39.9973C266.82 43.9443 262.892 53.9331 262.632 59.5815C261.382 86.3073 262.408 91.4811 259.801 120.337C279.571 121.471 297.029 118.739 304.85 118.392C304.85 118.392 306.018 110.035 303.918 100.752C302.055 92.5576 298.528 87.4416 298.528 87.4416Z" fill="white"/>
<path d="M277.565 50.6277L279.262 50.7045L275.96 120.584L274.264 120.507L277.565 50.6277Z" fill="#EDEDED"/>
<path d="M360.835 236.627H364.031L352.837 107.338H344.521L360.835 236.627Z" fill="#E39A46"/>
<path d="M97.05 96.678H435.752V107.35H97.05V96.678Z" fill="#D4D4D4"/>
<path d="M427.754 236.627H430.951L419.756 107.338H411.44L427.754 236.627Z" fill="#FCCB92"/>
<path d="M105.308 236.627H102.111L113.305 107.338H121.622L105.308 236.627Z" fill="#E39A46"/>
<path d="M172.239 236.627H169.042L180.224 107.338H188.541L172.239 236.627Z" fill="#FCCB92"/>
<path opacity="0.32" d="M355.668 96.678H435.752V107.35H361.943C360.044 103.658 358.027 100.023 355.668 96.678Z" fill="url(#paint1_linear_0_8)"/>
<path opacity="0.32" d="M327.676 96.678C330.035 100.093 332.123 103.669 334.046 107.35H304.343C302.68 103.796 301.017 100.243 299.294 96.7128C299.294 96.7012 299.283 96.6896 299.283 96.678H327.676Z" fill="url(#paint2_linear_0_8)"/>
<path fill-rule="evenodd" clip-rule="evenodd" d="M283.145 24.6725L289.067 38.6778L278.333 48.493L275.101 40.032L279.583 27.2305L283.145 24.6725Z" fill="url(#paint3_linear_0_8)"/>
<path fill-rule="evenodd" clip-rule="evenodd" d="M278.05 6.81289C272.966 5.81747 268.047 8.38703 267.28 12.8895C266.725 16.1304 267.056 21.4663 267.421 24.7188C267.716 27.2999 267.799 30.0894 269.002 32.4738C270.005 34.4646 271.939 36.4207 274.287 36.8027C276.728 37.1962 278.25 36.0966 280.031 34.5572C284.148 30.9806 285.399 26.8832 285.823 21.4084C286.283 15.3434 286.295 7.218 278.05 6.81289Z" fill="url(#paint4_linear_0_8)"/>
<path d="M269.273 41.9186C269.273 41.9186 244.643 68.8874 238.356 84.9645C236.48 89.7564 239.429 93.0552 244.23 93.2982C253.03 93.7496 272.116 66.179 272.116 66.179L269.273 41.9186Z" fill="white"/>
<path d="M229.78 87.6845C229.355 88.7956 234.404 92.8468 235.525 93.2982C236.645 93.7611 237.542 93.4486 238.745 93.6222C240.113 93.8306 241.505 94.0389 242.874 93.8537C244.242 93.6685 245.61 93.0204 246.342 91.8629C247.297 90.3351 247.804 87.7539 246.896 86.2029C245.351 83.5871 241.93 79.6633 240.208 80.9018C236.74 83.3787 230.901 84.8024 229.78 87.6845Z" fill="url(#paint5_linear_0_8)"/>
<path fill-rule="evenodd" clip-rule="evenodd" d="M240.974 92.5112C240.986 92.789 240.963 93.0899 240.762 93.2751C240.455 93.5529 239.936 93.3561 239.63 93.0668C239.323 92.7774 239.063 92.3954 238.662 92.2797C238.025 92.0945 237.436 92.6501 237.011 93.1478C236.586 93.6455 235.973 94.1895 235.348 93.9811C234.781 93.796 234.593 93.1246 234.31 92.6038C234.038 92.0829 233.295 91.6315 232.894 92.0598C232.693 92.2797 232.705 92.6154 232.623 92.9047C232.375 93.8191 231.089 94.1548 230.24 93.6918C229.391 93.2288 228.978 92.2565 228.872 91.3074C228.624 89.0735 229.957 86.7586 232.033 85.7979C236.751 83.6566 240.809 88.2054 240.974 92.5112Z" fill="url(#paint6_linear_0_8)"/>
<path d="M298.41 43.8516C289.197 42.3701 299.117 96.6665 299.117 96.6665L306.396 96.3077C315.007 92.5922 314.724 91.863 313.414 86.4114C310.217 72.9733 303.907 44.7313 298.41 43.8516Z" fill="white"/>
<path d="M264.39 96.6433L218.361 96.678L218.904 95.3006C219.281 94.3631 220.201 93.738 221.24 93.738H260.898C262.207 93.738 263.399 94.4904 263.941 95.6594L264.39 96.6433Z" fill="#83B9EB"/>
<path d="M258.739 93.738V93.4718C258.739 93.1361 258.456 92.8583 258.114 92.8583H255.849C255.507 92.8583 255.224 93.1361 255.224 93.4718V93.738H258.739Z" fill="#CEE3F7"/>
<path d="M253.561 93.738V93.4718C253.561 93.1361 253.278 92.8583 252.936 92.8583H250.671C250.329 92.8583 250.046 93.1361 250.046 93.4718V93.738H253.561Z" fill="#CEE3F7"/>
<path d="M248.394 93.738V93.4718C248.394 93.1361 248.111 92.8583 247.769 92.8583H245.504C245.162 92.8583 244.879 93.1361 244.879 93.4718V93.738H248.394Z" fill="#CEE3F7"/>
<path d="M243.216 93.738V93.4718C243.216 93.1361 242.933 92.8583 242.59 92.8583H240.326C239.984 92.8583 239.7 93.1361 239.7 93.4718V93.738H243.216Z" fill="#CEE3F7"/>
<path d="M238.037 93.738V93.4718C238.037 93.1361 237.754 92.8583 237.412 92.8583H235.147C234.805 92.8583 234.522 93.1361 234.522 93.4718V93.738H238.037Z" fill="#CEE3F7"/>
<path d="M232.87 93.738V93.4718C232.87 93.1361 232.587 92.8583 232.245 92.8583H229.98C229.638 92.8583 229.355 93.1361 229.355 93.4718V93.738H232.87Z" fill="#CEE3F7"/>
<path d="M227.692 93.738V93.4718C227.692 93.1361 227.409 92.8583 227.067 92.8583H224.802C224.46 92.8583 224.177 93.1361 224.177 93.4718V93.738H227.692Z" fill="#CEE3F7"/>
<path d="M143.692 77.9966H235.619C240.892 77.9966 245.162 73.8066 245.162 68.6327V19.024C245.162 13.8502 240.892 9.66019 235.619 9.66019H143.692C138.419 9.66019 134.149 13.8502 134.149 19.024V68.6327C134.149 73.8066 138.419 77.9966 143.692 77.9966Z" fill="#CEE3F7"/>
<path opacity="0.51" d="M169.608 42.1848C182.713 46.2475 195.654 46.8841 209.066 43.921C221.275 41.2241 232.859 36.849 245.15 35.4947V68.6328C245.15 73.8066 240.88 77.9966 235.607 77.9966H143.68C138.407 77.9966 134.137 73.8066 134.137 68.6328V28.9551C146.063 33.1451 157.824 38.5388 169.608 42.1848Z" fill="url(#paint7_linear_0_8)"/>
<path d="M189.567 56.9773L195.406 77.9967L173.489 78.124L172.368 67.5449L189.567 56.9773Z" fill="url(#paint8_linear_0_8)"/>
<path d="M207.922 96.6779L205.834 95.2311C203.604 93.6917 200.95 92.8699 198.225 92.8699H183.303C183.303 92.8699 175.022 83.0199 181.605 73.8528H165.043C165.043 73.8528 156.337 79.7906 163.981 92.8699H156.337V96.6432L207.922 96.6779Z" fill="#83B9EB"/>
<path d="M181.605 73.853C181.605 73.853 186.995 69.1769 188.541 65.2647C190.098 61.3525 189.567 56.9773 189.567 56.9773H172.581C172.581 56.9773 173.595 61.6418 171.944 65.4151C171.307 66.8735 165.043 73.853 165.043 73.853H181.605Z" fill="#84BBF0"/>
<path fill-rule="evenodd" clip-rule="evenodd" d="M274.393 91.5969C269.898 91.2959 265.133 90.7056 261.075 92.6501C260.839 92.7659 260.603 92.8816 260.343 92.8585C260.084 92.8353 259.824 92.6154 259.883 92.3723C259.919 92.2335 260.037 92.1293 260.155 92.0251C260.969 91.3885 261.771 90.7403 262.585 90.1037C261.877 89.9995 261.181 90.3584 260.638 90.8214C260.096 91.2843 259.647 91.8399 259.081 92.2566C258.503 92.6733 257.737 92.9279 257.076 92.6733C256.415 92.4071 256.05 91.4695 256.557 90.9718C256.132 91.2496 255.696 91.5158 255.271 91.7936C254.681 92.164 254.068 92.546 253.372 92.6617C252.676 92.7775 251.874 92.5344 251.544 91.9325C251.119 91.157 251.614 90.1963 252.192 89.5134C254.634 86.6082 258.574 85.254 262.408 85.0225C266.242 84.791 270.052 85.5318 273.838 86.1452C277.625 86.7587 281.517 87.2448 285.28 86.4925C286.212 86.3073 287.132 86.0411 288.088 85.9948C289.032 85.9485 290.046 86.1452 290.754 86.7587C291.686 87.5689 291.898 88.8884 291.827 90.0459C291.745 91.4232 290.541 91.2728 289.397 91.3885C286.236 91.6894 283.063 91.8283 279.89 91.8052C278.038 91.7936 276.209 91.7242 274.393 91.5969Z" fill="url(#paint9_linear_0_8)"/>
<path d="M313.426 88.4947C314.688 92.1986 313.438 93.9811 310.312 96.0645C307.186 98.1479 279.323 93.8885 279.323 93.8885V86.203C279.323 86.203 310.666 80.3462 313.426 88.4947Z" fill="url(#paint10_linear_0_8)"/>
<path d="M290.99 96.6086H302.456L304.154 77.9851H289.291L290.99 96.6086Z" fill="#FFCF4A"/>
<path fill-rule="evenodd" clip-rule="evenodd" d="M205.669 234.45L205.893 232.101L209.408 222.563H203.628L201.34 232.402L201.387 234.184L205.669 234.45Z" fill="url(#paint11_linear_0_8)"/>
<path d="M256.227 232.101L255.708 236.626H234.51C234.51 236.626 233.968 235.041 235.867 233.895C237.754 232.749 256.227 232.101 256.227 232.101Z" fill="#83B9EB"/>
<path d="M206.129 232.101L205.61 236.626H184.412C184.412 236.626 183.869 235.041 185.769 233.895C187.656 232.749 206.129 232.101 206.129 232.101Z" fill="#83B9EB"/>
<path d="M208.122 229.589C208.122 229.589 232.387 171.728 237.329 147.872C242.272 124.017 222.325 127.362 218.22 139.365C212.593 155.778 200.231 229.589 200.231 229.589H208.122Z" fill="#4A4A4A"/>
<path d="M387.081 55.3799H401.519V96.6665H387.081V55.3799Z" fill="#83B9EB"/>
<path d="M390.408 59.6971H398.193V82.2329H390.408V59.6971Z" fill="white"/>
<path d="M396.777 88.8767C396.777 87.5341 395.669 86.4461 394.3 86.4461C392.932 86.4461 391.823 87.5341 391.823 88.8767C391.823 90.2194 392.932 91.3074 394.3 91.3074C395.669 91.3074 396.777 90.2194 396.777 88.8767Z" fill="#4A4A4A"/>
<path d="M372.654 55.3799H387.093V96.6665H372.654V55.3799Z" fill="#FFCF4A"/>
<path d="M375.981 59.6971H383.766V82.2329H375.981V59.6971Z" fill="white"/>
<path d="M382.351 88.8767C382.351 87.5341 381.242 86.4461 379.874 86.4461C378.505 86.4461 377.396 87.5341 377.396 88.8767C377.396 90.2194 378.505 91.3074 379.874 91.3074C381.242 91.3074 382.351 90.2194 382.351 88.8767Z" fill="#4A4A4A"/>
<path d="M401.52 55.3799H415.958V96.6665H401.52V55.3799Z" fill="#F08365"/>
<path d="M404.846 59.6971H412.631V82.2329H404.846V59.6971Z" fill="white"/>
<path d="M411.216 88.8767C411.216 87.5341 410.107 86.4461 408.739 86.4461C407.37 86.4461 406.261 87.5341 406.261 88.8767C406.261 90.2194 407.37 91.3074 408.739 91.3074C410.107 91.3074 411.216 90.2194 411.216 88.8767Z" fill="#4A4A4A"/>
<path d="M403.419 189.784C406.934 189.784 410.968 185.583 415.71 176.983C423.956 162.051 421.113 155.859 418.6 150.407C417.291 147.548 416.147 145.083 416.583 141.564C417.338 135.499 424.557 134.423 431.541 133.393C436.059 132.721 440.317 132.085 442.629 130.059C455.864 118.404 447.288 106.956 447.194 106.841L446.828 106.366L446.25 106.551C399.361 121.83 395.362 152.942 398.016 184.286L398.04 184.425C398.087 184.622 399.349 189.321 402.888 189.749C403.065 189.773 403.242 189.784 403.419 189.784ZM446.191 108.334C447.583 110.51 452.207 119.399 441.508 128.821C439.574 130.522 435.563 131.113 431.305 131.749C424.05 132.826 415.828 134.052 414.92 141.368C414.424 145.349 415.769 148.266 417.067 151.09C419.532 156.449 422.08 161.982 414.236 176.184C408.267 186.995 404.704 188.291 403.112 188.094C400.894 187.828 399.856 184.552 399.715 184.066C396.73 148.845 403.525 122.455 446.191 108.334Z" fill="#6AAEF0"/>
<path d="M401.932 189.483L402.227 187.84C399.396 187.353 394.808 180.837 393.958 177.619C390.455 164.355 391.139 157.804 391.917 150.199C392.224 147.19 392.554 144.076 392.672 140.291C392.991 130.082 398.842 128.45 403.537 127.131C405.377 126.622 406.969 126.17 408.019 125.267C408.963 124.457 410.39 122.524 412.384 119.85C416.418 114.422 422.505 106.227 427.683 103.727C435.221 100.093 442.806 102.928 445.79 107.767L447.241 106.898C443.856 101.412 435.339 98.1712 426.928 102.222C421.384 104.896 415.38 112.964 411.004 118.855C409.222 121.251 407.689 123.323 406.887 124.006C406.12 124.665 404.693 125.059 403.053 125.522C398.382 126.83 391.316 128.798 390.962 140.233C390.844 143.972 390.526 147.051 390.219 150.025C389.417 157.78 388.721 164.47 392.295 178.024C393.215 181.462 398.004 188.8 401.932 189.483Z" fill="#6AAEF0"/>
<path d="M434.124 132.953L434.372 131.298C417.692 128.948 413.08 126.598 413.044 126.575L412.23 128.034C412.407 128.138 417.02 130.545 434.124 132.953Z" fill="#6AAEF0"/>
<path d="M406.629 124.55L408.314 124.762L406.754 136.691L405.069 136.479L406.629 124.55Z" fill="#6AAEF0"/>
<path d="M398.511 166.485C411.582 164.494 418.883 153.81 419.19 153.359L417.775 152.445C417.704 152.549 410.555 162.966 398.252 164.841L398.511 166.485Z" fill="#6AAEF0"/>
<path d="M404.846 164.933C401.626 157.827 395.267 152.421 392.153 145.268C389.924 140.152 389.511 134.469 389.287 128.902C389.063 123.334 388.968 117.686 387.329 112.362C385.689 107.037 382.209 101.956 377.007 99.7452C371.793 97.5344 364.81 99.0739 362.12 103.982C360.233 107.419 360.74 111.655 361.849 115.406C363.819 122.049 367.547 128.149 368.927 134.944C370.425 142.34 369.045 150.048 370.177 157.514C371.18 164.158 374.152 170.35 377.267 176.334C379.048 179.737 380.912 183.152 383.507 186.011C386.102 188.87 389.523 191.161 393.38 191.728C407.948 193.893 408.939 173.95 404.846 164.933Z" fill="#D4EAFF"/>
<path opacity="0.45" d="M362.11 103.981C364.611 99.4091 370.863 97.7656 375.911 99.3513C370.403 99.9184 365.283 104.305 365.896 110.324C366.392 115.266 370.509 118.611 373.882 121.841C379.202 126.922 383.119 133.265 382.553 140.777C382.081 147.004 379.379 153.115 380.429 159.435C381.078 163.278 383.272 166.843 385.891 169.713C390.822 175.119 400.141 178.718 404.706 170.894C405.189 170.072 405.602 169.123 405.944 168.116C408.563 177.92 406.404 193.673 393.358 191.728C389.5 191.149 386.08 188.869 383.484 186.01C380.889 183.151 379.025 179.737 377.244 176.334C374.13 170.35 371.157 164.157 370.155 157.514C369.022 150.048 370.414 142.339 368.904 134.943C367.524 128.16 363.808 122.049 361.827 115.405C360.718 111.643 360.222 107.419 362.11 103.981Z" fill="url(#paint12_linear_0_8)"/>
<path d="M389.936 205.444C390.207 205.444 390.467 205.317 390.632 205.097C396.907 196.416 398.818 184.703 395.598 174.529C394.277 170.327 392.142 166.403 390.077 162.618C388.095 158.972 386.043 155.199 384.769 151.241C383.129 146.194 382.705 140.766 382.292 135.511C382.186 134.133 382.079 132.744 381.95 131.379C381.348 124.989 380.169 117.651 375.981 111.748C375.71 111.366 375.191 111.273 374.801 111.54C374.412 111.806 374.318 112.327 374.589 112.697C378.552 118.288 379.673 125.348 380.263 131.529C380.393 132.895 380.499 134.272 380.605 135.638C381.03 140.985 381.466 146.518 383.165 151.75C384.498 155.847 386.586 159.69 388.603 163.405C390.62 167.132 392.72 170.975 393.994 175.026C397.049 184.714 395.232 195.872 389.263 204.136C388.992 204.507 389.086 205.028 389.464 205.294C389.594 205.398 389.771 205.444 389.936 205.444Z" fill="white"/>
<path d="M381.053 131.842C381.442 131.842 381.785 131.587 381.879 131.193C381.985 130.742 381.702 130.302 381.242 130.198L366.898 126.957C366.438 126.853 365.99 127.131 365.883 127.582C365.777 128.034 366.06 128.473 366.52 128.578L380.864 131.818C380.923 131.83 380.994 131.842 381.053 131.842Z" fill="white"/>
<path d="M381.053 140.164C381.466 140.164 381.832 139.863 381.891 139.446C381.961 138.995 381.631 138.566 381.171 138.509L369.469 136.865C369.009 136.807 368.573 137.12 368.514 137.571C368.443 138.022 368.773 138.451 369.233 138.509L380.935 140.152C380.971 140.164 381.018 140.164 381.053 140.164Z" fill="white"/>
<path d="M388.072 161.496C388.414 161.496 388.732 161.299 388.862 160.975L393.935 148.451C394.111 148.023 393.899 147.537 393.463 147.375C393.026 147.213 392.531 147.409 392.366 147.838L387.293 160.361C387.116 160.79 387.329 161.276 387.765 161.438C387.86 161.484 387.966 161.496 388.072 161.496Z" fill="white"/>
<path d="M377.219 235.747H421.726L424.274 208.917L426.822 182.087H372.124L374.672 208.917L377.219 235.747Z" fill="#6AAEF0"/>
<path opacity="0.6" d="M395.503 215.711C401.555 209.727 404.268 201.428 409.777 195.051C414.212 189.923 420.098 187.643 426.386 186.659L424.274 208.917L421.726 235.747H377.219L376.287 225.92C383.035 222.968 390.101 221.059 395.503 215.711Z" fill="url(#paint13_linear_0_8)"/>
<path d="M132.273 93.8422H137.31C138.997 93.8422 140.46 92.7195 140.861 91.1106L141.958 86.7586C142.229 85.6821 141.981 84.5594 141.285 83.6913C140.59 82.8116 139.54 82.3139 138.407 82.3139H134.267L132.273 93.8422ZM138.395 83.9807C138.997 83.9807 139.563 84.2469 139.941 84.7215C140.318 85.1844 140.448 85.7863 140.306 86.365L139.209 90.7171C138.997 91.5736 138.207 92.1755 137.31 92.1755H134.29L135.706 83.9807H138.395Z" fill="#F08365"/>
<path d="M121.527 96.6779H135.222L139.162 78.7489H122.081L121.527 96.6779Z" fill="#F08365"/>
<path opacity="0.68" d="M125.903 90.0805C127.496 88.7263 128.416 86.9438 129.525 85.2307C131.731 81.851 134.255 80.2305 137.888 78.7374H139.162L135.222 96.6664H121.527L121.669 92.1292C123.178 91.7241 124.629 91.1569 125.903 90.0805Z" fill="url(#paint14_linear_0_8)"/>
<path d="M287.781 21.7441C288.418 18.5264 288.406 13.1094 287.25 11.1649C285.552 8.28285 282.567 6.5235 279.3 5.9795C275.442 5.33132 272.246 5.05353 269.261 2.49554C267.633 1.09502 264.92 -0.57172 262.62 0.192203C258.857 1.45383 258.491 9.94958 260.603 12.6465C263.009 15.7369 269.556 19.1514 273.673 18.3296C276.846 17.693 280.161 16.5587 282.532 14.1743C283.57 17.1837 280.55 22.1376 282.06 25.0776C284.101 29.0245 286.826 26.5475 287.781 21.7441Z" fill="#4A4A4A"/>
<path d="M126.446 75.3807C126.705 75.67 127.166 75.6932 127.484 75.4732L127.826 75.1029C127.968 74.8251 127.873 74.4315 127.508 74.0496C126.316 72.8111 124.724 72.0356 123.19 71.3295C122.565 71.0402 121.916 70.7508 121.279 70.4615C116.502 68.3086 111.547 66.0747 108.752 61.9194C105.272 56.7456 106.393 48.9906 111.194 44.9742C115.782 41.1314 123.296 41.0851 128.015 44.7543C128.369 45.0321 128.876 45.0089 129.183 44.6848C129.513 44.3376 129.489 43.782 129.112 43.4811C122.14 37.9947 110.226 39.673 106.381 48.7475C103.715 55.0441 105.39 62.1625 110.745 66.5145C113.612 68.841 117.127 70.4267 120.572 71.9893C121.209 72.2787 121.845 72.5565 122.471 72.8458C123.922 73.5056 125.42 74.2579 126.446 75.3807Z" fill="#E3EFFA"/>
<path d="M132.757 59.13C142.76 59.3847 151.513 51.8612 152.468 42.0806C153.565 30.8186 144.541 21.3042 133.288 21.3042C128.958 21.3042 124.747 22.7395 121.362 25.3553C120.984 25.6447 120.949 26.2003 121.256 26.5591C121.55 26.8948 122.07 26.9295 122.423 26.6517C127.307 22.89 134.031 21.8251 140.177 24.3368C146.086 26.7559 150.191 32.3233 150.781 38.5851C151.749 48.8286 143.527 57.4633 133.288 57.4633C130.822 57.4633 128.463 56.9772 126.245 56.028C125.821 55.8428 125.337 56.0049 125.137 56.41C124.924 56.8267 125.101 57.3591 125.538 57.5443C127.814 58.5282 130.232 59.0606 132.757 59.13Z" fill="#E3EFFA"/>
<path d="M1.18143 237.784H418.819C419.468 237.784 420 237.263 420 236.626C420 235.99 419.468 235.469 418.819 235.469H1.18143C0.531647 235.469 0 235.99 0 236.626C0 237.263 0.531647 237.784 1.18143 237.784Z" fill="#D4EAFF"/>
<defs>
<linearGradient id="paint0_linear_0_8" x1="254.432" y1="233.021" x2="254.218" y2="216.777" gradientUnits="userSpaceOnUse">
<stop stop-color="#FFB08E"/>
<stop offset="1" stop-color="#FFBDA1"/>
</linearGradient>
<linearGradient id="paint1_linear_0_8" x1="329.052" y1="102.007" x2="46.4377" y2="102.007" gradientUnits="userSpaceOnUse">
<stop stop-color="white"/>
<stop offset="1" stop-color="#F2F2F2"/>
</linearGradient>
<linearGradient id="paint2_linear_0_8" x1="329.052" y1="102.007" x2="46.4383" y2="102.007" gradientUnits="userSpaceOnUse">
<stop stop-color="white"/>
<stop offset="1" stop-color="#F2F2F2"/>
</linearGradient>
<linearGradient id="paint3_linear_0_8" x1="282.165" y1="45.2082" x2="281.755" y2="14.1618" gradientUnits="userSpaceOnUse">
<stop stop-color="#F09B76"/>
<stop offset="1" stop-color="#FFB291"/>
</linearGradient>
<linearGradient id="paint4_linear_0_8" x1="279.311" y1="31.9188" x2="270.554" y2="-6.0153" gradientUnits="userSpaceOnUse">
<stop stop-color="#FFB08E"/>
<stop offset="1" stop-color="#FFBDA1"/>
</linearGradient>
<linearGradient id="paint5_linear_0_8" x1="239.169" y1="88.4085" x2="250.825" y2="83.5471" gradientUnits="userSpaceOnUse">
<stop stop-color="white"/>
<stop offset="1" stop-color="#F2F2F2"/>
</linearGradient>
<linearGradient id="paint6_linear_0_8" x1="234.928" y1="92.8376" x2="234.777" y2="81.3635" gradientUnits="userSpaceOnUse">
<stop stop-color="#FFB08E"/>
<stop offset="1" stop-color="#FFBDA1"/>
</linearGradient>
<linearGradient id="paint7_linear_0_8" x1="189.653" y1="74.0294" x2="189.653" y2="22.587" gradientUnits="userSpaceOnUse">
<stop stop-color="white"/>
<stop offset="0.1113" stop-color="#F5F9FF"/>
<stop offset="0.4616" stop-color="#D9EAFF"/>
<stop offset="0.7695" stop-color="#C8E1FF"/>
<stop offset="1" stop-color="#C2DEFF"/>
</linearGradient>
<linearGradient id="paint8_linear_0_8" x1="183.887" y1="80.618" x2="183.887" y2="54.7786" gradientUnits="userSpaceOnUse">
<stop stop-color="white"/>
<stop offset="0.1113" stop-color="#F5F9FF"/>
<stop offset="0.4616" stop-color="#D9EAFF"/>
<stop offset="0.7695" stop-color="#C8E1FF"/>
<stop offset="1" stop-color="#C2DEFF"/>
</linearGradient>
<linearGradient id="paint9_linear_0_8" x1="271.61" y1="91.6445" x2="271.475" y2="81.3873" gradientUnits="userSpaceOnUse">
<stop stop-color="#FFB08E"/>
<stop offset="1" stop-color="#FFBDA1"/>
</linearGradient>
<linearGradient id="paint10_linear_0_8" x1="303.017" y1="90.404" x2="274.154" y2="90.404" gradientUnits="userSpaceOnUse">
<stop stop-color="white"/>
<stop offset="1" stop-color="#F2F2F2"/>
</linearGradient>
<linearGradient id="paint11_linear_0_8" x1="205.448" y1="232.831" x2="205.243" y2="217.266" gradientUnits="userSpaceOnUse">
<stop stop-color="#FFB08E"/>
<stop offset="1" stop-color="#FFBDA1"/>
</linearGradient>
<linearGradient id="paint12_linear_0_8" x1="383.887" y1="205.209" x2="383.887" y2="67.45" gradientUnits="userSpaceOnUse">
<stop stop-color="white"/>
<stop offset="0.1113" stop-color="#F5F9FF"/>
<stop offset="0.4616" stop-color="#D9EAFF"/>
<stop offset="0.7695" stop-color="#C8E1FF"/>
<stop offset="1" stop-color="#C2DEFF"/>
</linearGradient>
<linearGradient id="paint13_linear_0_8" x1="401.335" y1="242.096" x2="401.335" y2="176.5" gradientUnits="userSpaceOnUse">
<stop stop-color="white"/>
<stop offset="0.1113" stop-color="#F5F9FF"/>
<stop offset="0.4616" stop-color="#D9EAFF"/>
<stop offset="0.7695" stop-color="#C8E1FF"/>
<stop offset="1" stop-color="#C2DEFF"/>
</linearGradient>
<linearGradient id="paint14_linear_0_8" x1="130.349" y1="98.7921" x2="130.349" y2="76.8789" gradientUnits="userSpaceOnUse">
<stop stop-color="white"/>
<stop offset="0.1113" stop-color="#FFF5F5"/>
<stop offset="0.4616" stop-color="#FFD9DB"/>
<stop offset="0.7695" stop-color="#FFC8CC"/>
<stop offset="1" stop-color="#FFC2C6"/>
</linearGradient>
</defs>
</svg>
